FullBodyModel_MuscleActuatedLowerLimb_TorqueActuatedUpperBody_states
version=1
nRows=4
nColumns=205
inDegrees=yes

# SIMM Motion File Header:
name FullBodyModel_MuscleActuatedLowerLimb_TorqueActuatedUpperBody_states
datacolumns 205
datarows 4
otherdata 1
range 0.00000000 0.00006978
endheader
time	/jointset/ground_pelvis/pelvis_tilt/value	/jointset/ground_pelvis/pelvis_tilt/speed	/jointset/ground_pelvis/pelvis_list/value	/jointset/ground_pelvis/pelvis_list/speed	/jointset/ground_pelvis/pelvis_rotation/value	/jointset/ground_pelvis/pelvis_rotation/speed	/jointset/ground_pelvis/pelvis_tx/value	/jointset/ground_pelvis/pelvis_tx/speed	/jointset/ground_pelvis/pelvis_ty/value	/jointset/ground_pelvis/pelvis_ty/speed	/jointset/ground_pelvis/pelvis_tz/value	/jointset/ground_pelvis/pelvis_tz/speed	/jointset/hip_r/hip_flexion_r/value	/jointset/hip_r/hip_flexion_r/speed	/jointset/hip_r/hip_adduction_r/value	/jointset/hip_r/hip_adduction_r/speed	/jointset/hip_r/hip_rotation_r/value	/jointset/hip_r/hip_rotation_r/speed	/jointset/walker_knee_r/knee_angle_r/value	/jointset/walker_knee_r/knee_angle_r/speed	/jointset/patellofemoral_r/knee_angle_r_beta/value	/jointset/patellofemoral_r/knee_angle_r_beta/speed	/jointset/ankle_r/ankle_angle_r/value	/jointset/ankle_r/ankle_angle_r/speed	/jointset/subtalar_r/subtalar_angle_r/value	/jointset/subtalar_r/subtalar_angle_r/speed	/jointset/mtp_r/mtp_angle_r/value	/jointset/mtp_r/mtp_angle_r/speed	/jointset/hip_l/hip_flexion_l/value	/jointset/hip_l/hip_flexion_l/speed	/jointset/hip_l/hip_adduction_l/value	/jointset/hip_l/hip_adduction_l/speed	/jointset/hip_l/hip_rotation_l/value	/jointset/hip_l/hip_rotation_l/speed	/jointset/walker_knee_l/knee_angle_l/value	/jointset/walker_knee_l/knee_angle_l/speed	/jointset/patellofemoral_l/knee_angle_l_beta/value	/jointset/patellofemoral_l/knee_angle_l_beta/speed	/jointset/ankle_l/ankle_angle_l/value	/jointset/ankle_l/ankle_angle_l/speed	/jointset/subtalar_l/subtalar_angle_l/value	/jointset/subtalar_l/subtalar_angle_l/speed	/jointset/mtp_l/mtp_angle_l/value	/jointset/mtp_l/mtp_angle_l/speed	/jointset/back/lumbar_extension/value	/jointset/back/lumbar_extension/speed	/jointset/back/lumbar_bending/value	/jointset/back/lumbar_bending/speed	/jointset/back/lumbar_rotation/value	/jointset/back/lumbar_rotation/speed	/jointset/acromial_r/arm_flex_r/value	/jointset/acromial_r/arm_flex_r/speed	/jointset/acromial_r/arm_add_r/value	/jointset/acromial_r/arm_add_r/speed	/jointset/acromial_r/arm_rot_r/value	/jointset/acromial_r/arm_rot_r/speed	/jointset/elbow_r/elbow_flex_r/value	/jointset/elbow_r/elbow_flex_r/speed	/jointset/radioulnar_r/pro_sup_r/value	/jointset/radioulnar_r/pro_sup_r/speed	/jointset/radius_hand_r/wrist_flex_r/value	/jointset/radius_hand_r/wrist_flex_r/speed	/jointset/radius_hand_r/wrist_dev_r/value	/jointset/radius_hand_r/wrist_dev_r/speed	/jointset/acromial_l/arm_flex_l/value	/jointset/acromial_l/arm_flex_l/speed	/jointset/acromial_l/arm_add_l/value	/jointset/acromial_l/arm_add_l/speed	/jointset/acromial_l/arm_rot_l/value	/jointset/acromial_l/arm_rot_l/speed	/jointset/elbow_l/elbow_flex_l/value	/jointset/elbow_l/elbow_flex_l/speed	/jointset/radioulnar_l/pro_sup_l/value	/jointset/radioulnar_l/pro_sup_l/speed	/jointset/radius_hand_l/wrist_flex_l/value	/jointset/radius_hand_l/wrist_flex_l/speed	/jointset/radius_hand_l/wrist_dev_l/value	/jointset/radius_hand_l/wrist_dev_l/speed	/forceset/addbrev_r/activation	/forceset/addlong_r/activation	/forceset/addlong_r/fiber_length	/forceset/addmagDist_r/activation	/forceset/addmagIsch_r/activation	/forceset/addmagIsch_r/fiber_length	/forceset/addmagMid_r/activation	/forceset/addmagProx_r/activation	/forceset/bflh_r/activation	/forceset/bflh_r/fiber_length	/forceset/bfsh_r/activation	/forceset/edl_r/activation	/forceset/edl_r/fiber_length	/forceset/ehl_r/activation	/forceset/ehl_r/fiber_length	/forceset/fdl_r/activation	/forceset/fdl_r/fiber_length	/forceset/fhl_r/activation	/forceset/fhl_r/fiber_length	/forceset/gaslat_r/activation	/forceset/gaslat_r/fiber_length	/forceset/gasmed_r/activation	/forceset/gasmed_r/fiber_length	/forceset/glmax1_r/activation	/forceset/glmax2_r/activation	/forceset/glmax3_r/activation	/forceset/glmed1_r/activation	/forceset/glmed2_r/activation	/forceset/glmed3_r/activation	/forceset/glmin1_r/activation	/forceset/glmin2_r/activation	/forceset/glmin3_r/activation	/forceset/glmin3_r/fiber_length	/forceset/grac_r/activation	/forceset/iliacus_r/activation	/forceset/perbrev_r/activation	/forceset/perbrev_r/fiber_length	/forceset/perlong_r/activation	/forceset/perlong_r/fiber_length	/forceset/piri_r/activation	/forceset/piri_r/fiber_length	/forceset/psoas_r/activation	/forceset/recfem_r/activation	/forceset/recfem_r/fiber_length	/forceset/sart_r/activation	/forceset/semimem_r/activation	/forceset/semimem_r/fiber_length	/forceset/semiten_r/activation	/forceset/semiten_r/fiber_length	/forceset/soleus_r/activation	/forceset/soleus_r/fiber_length	/forceset/tfl_r/activation	/forceset/tfl_r/fiber_length	/forceset/tibant_r/activation	/forceset/tibant_r/fiber_length	/forceset/tibpost_r/activation	/forceset/tibpost_r/fiber_length	/forceset/vasint_r/activation	/forceset/vasint_r/fiber_length	/forceset/vaslat_r/activation	/forceset/vaslat_r/fiber_length	/forceset/vasmed_r/activation	/forceset/vasmed_r/fiber_length	/forceset/addbrev_l/activation	/forceset/addlong_l/activation	/forceset/addlong_l/fiber_length	/forceset/addmagDist_l/activation	/forceset/addmagIsch_l/activation	/forceset/addmagIsch_l/fiber_length	/forceset/addmagMid_l/activation	/forceset/addmagProx_l/activation	/forceset/bflh_l/activation	/forceset/bflh_l/fiber_length	/forceset/bfsh_l/activation	/forceset/edl_l/activation	/forceset/edl_l/fiber_length	/forceset/ehl_l/activation	/forceset/ehl_l/fiber_length	/forceset/fdl_l/activation	/forceset/fdl_l/fiber_length	/forceset/fhl_l/activation	/forceset/fhl_l/fiber_length	/forceset/gaslat_l/activation	/forceset/gaslat_l/fiber_length	/forceset/gasmed_l/activation	/forceset/gasmed_l/fiber_length	/forceset/glmax1_l/activation	/forceset/glmax2_l/activation	/forceset/glmax3_l/activation	/forceset/glmed1_l/activation	/forceset/glmed2_l/activation	/forceset/glmed3_l/activation	/forceset/glmin1_l/activation	/forceset/glmin2_l/activation	/forceset/glmin3_l/activation	/forceset/glmin3_l/fiber_length	/forceset/grac_l/activation	/forceset/iliacus_l/activation	/forceset/perbrev_l/activation	/forceset/perbrev_l/fiber_length	/forceset/perlong_l/activation	/forceset/perlong_l/fiber_length	/forceset/piri_l/activation	/forceset/piri_l/fiber_length	/forceset/psoas_l/activation	/forceset/recfem_l/activation	/forceset/recfem_l/fiber_length	/forceset/sart_l/activation	/forceset/semimem_l/activation	/forceset/semimem_l/fiber_length	/forceset/semiten_l/activation	/forceset/semiten_l/fiber_length	/forceset/soleus_l/activation	/forceset/soleus_l/fiber_length	/forceset/tfl_l/activation	/forceset/tfl_l/fiber_length	/forceset/tibant_l/activation	/forceset/tibant_l/fiber_length	/forceset/tibpost_l/activation	/forceset/tibpost_l/fiber_length	/forceset/vasint_l/activation	/forceset/vasint_l/fiber_length	/forceset/vaslat_l/activation	/forceset/vaslat_l/fiber_length	/forceset/vasmed_l/activation	/forceset/vasmed_l/fiber_length
      0.00000000	      0.00000000	      0.00000000	      0.00000000	      0.00000000	      0.00000000	      0.00000000	      0.00000000	      0.00000000	      0.94000000	      0.00000000	      0.00000000	      0.00000000	      0.00000000	      0.00000000	      0.00000000	      0.00000000	      0.00000000	      0.00000000	      0.00000000	      0.00000000	      0.00000000	      0.00000000	      0.00000000	      0.00000000	      0.00000000	      0.00000000	      0.00000000	      0.00000000	      0.00000000	      0.00000000	      0.00000000	      0.00000000	      0.00000000	      0.00000000	      0.00000000	      0.00000000	      0.00000000	      0.00000000	      0.00000000	      0.00000000	      0.00000000	      0.00000000	      0.00000000	      0.00000000	      0.00000000	      0.00000000	      0.00000000	      0.00000000	      0.00000000	      0.00000000	      0.00000000	      0.00000000	      0.00000000	      0.00000000	      0.00000000	      0.00000000	      0.00000000	      0.00000000	      0.00000000	      0.00000000	      0.00000000	      0.00000000	      0.00000000	      0.00000000	      0.00000000	      0.00000000	      0.00000000	      0.00000000	      0.00000000	      0.00000000	      0.00000000	      0.00000000	      0.00000000	      0.00000000	      0.00000000	      0.00000000	      0.00000000	      0.00000000	      0.01000000	      0.01000000	      0.10000000	      0.01000000	      0.01000000	      0.10000000	      0.01000000	      0.01000000	      0.01000000	      0.10000000	      0.01000000	      0.01000000	      0.10000000	      0.01000000	      0.10000000	      0.01000000	      0.10000000	      0.01000000	      0.10000000	      0.01000000	      0.10000000	      0.01000000	      0.10000000	      0.01000000	      0.01000000	      0.01000000	      0.01000000	      0.01000000	      0.01000000	      0.01000000	      0.01000000	      0.01000000	      0.10000000	      0.01000000	      0.01000000	      0.01000000	      0.10000000	      0.01000000	      0.10000000	      0.01000000	      0.10000000	      0.01000000	      0.01000000	      0.10000000	      0.01000000	      0.01000000	      0.10000000	      0.01000000	      0.10000000	      0.01000000	      0.10000000	      0.01000000	      0.10000000	      0.01000000	      0.10000000	      0.01000000	      0.10000000	      0.01000000	      0.10000000	      0.01000000	      0.10000000	      0.01000000	      0.10000000	      0.01000000	      0.01000000	      0.10000000	      0.01000000	      0.01000000	      0.10000000	      0.01000000	      0.01000000	      0.01000000	      0.10000000	      0.01000000	      0.01000000	      0.10000000	      0.01000000	      0.10000000	      0.01000000	      0.10000000	      0.01000000	      0.10000000	      0.01000000	      0.10000000	      0.01000000	      0.10000000	      0.01000000	      0.01000000	      0.01000000	      0.01000000	      0.01000000	      0.01000000	      0.01000000	      0.01000000	      0.01000000	      0.10000000	      0.01000000	      0.01000000	      0.01000000	      0.10000000	      0.01000000	      0.10000000	      0.01000000	      0.10000000	      0.01000000	      0.01000000	      0.10000000	      0.01000000	      0.01000000	      0.10000000	      0.01000000	      0.10000000	      0.01000000	      0.10000000	      0.01000000	      0.10000000	      0.01000000	      0.10000000	      0.01000000	      0.10000000	      0.01000000	      0.10000000	      0.01000000	      0.10000000	      0.01000000	      0.10000000
      0.00001846	      0.00002896	      2.90626210	      0.00000000	      0.00000000	     -0.00000000	     -0.00000000	      0.00000000	      0.00016219	      0.94000004	      0.00371798	     -0.00000000	      0.00000000	     -0.00003289	     -3.30146502	      0.00000108	      0.10927355	      0.00000216	      0.21790120	      0.00000405	      0.40635230	      0.00000007	      0.00709219	      0.00000889	      0.89313809	     -0.00000000	     -0.00000000	     -0.00000000	     -0.00000000	     -0.00003289	     -3.30146502	      0.00000108	      0.10927355	      0.00000216	      0.21790120	      0.00000405	      0.40635230	      0.00000007	      0.00709219	      0.00000889	      0.89313809	      0.00000000	      0.00000000	     -0.00000000	     -0.00000000	     -0.00003374	     -3.38647148	     -0.00000000	     -0.00000000	      0.00000000	      0.00000000	      0.00000719	      0.72121113	      0.00000024	      0.02405906	      0.00000002	      0.00243676	     -0.00000343	     -0.34390043	      0.00000075	      0.07528208	      0.00000000	      0.00000000	      0.00000000	      0.00000000	      0.00000719	      0.72121113	      0.00000024	      0.02405906	      0.00000002	      0.00243676	     -0.00000343	     -0.34390043	      0.00000075	      0.07528208	      0.00000000	      0.00000000	     -0.00000000	     -0.00000000	      0.00999762	      0.00999762	      0.10398666	      0.00999762	      0.00999762	      0.10746103	      0.00999762	      0.00999762	      0.00999762	      0.09999293	      0.00999762	      0.00999762	      0.09957291	      0.00999762	      0.09976837	      0.00999762	      0.09795597	      0.00999762	      0.09851771	      0.00999762	      0.09894074	      0.00999762	      0.09839981	      0.00999762	      0.00999762	      0.00999762	      0.00999762	      0.00999762	      0.00999762	      0.00999762	      0.00999762	      0.00999762	      0.09749827	      0.00999762	      0.00999762	      0.00999762	      0.09801145	      0.00999762	      0.09838594	      0.00999762	      0.09666607	      0.00999762	      0.00999762	      0.09979791	      0.00999762	      0.00999762	      0.09955965	      0.00999762	      0.13992192	      0.00999762	      0.09791436	      0.00999762	      0.09998680	      0.00999762	      0.09952750	      0.00999762	      0.09748440	      0.00999762	      0.09999421	      0.00999762	      0.09999421	      0.00999762	      0.09999141	      0.00999762	      0.00999762	      0.10398666	      0.00999762	      0.00999762	      0.10746103	      0.00999762	      0.00999762	      0.00999762	      0.09999293	      0.00999762	      0.00999762	      0.09957291	      0.00999762	      0.09976837	      0.00999762	      0.09795597	      0.00999762	      0.09851771	      0.00999762	      0.09894074	      0.00999762	      0.09839981	      0.00999762	      0.00999762	      0.00999762	      0.00999762	      0.00999762	      0.00999762	      0.00999762	      0.00999762	      0.00999762	      0.09749827	      0.00999762	      0.00999762	      0.00999762	      0.09801145	      0.00999762	      0.09838594	      0.00999762	      0.09666607	      0.00999762	      0.00999762	      0.09979791	      0.00999762	      0.00999762	      0.09955965	      0.00999762	      0.13992192	      0.00999762	      0.09791436	      0.00999762	      0.09998680	      0.00999762	      0.09952750	      0.00999762	      0.09748440	      0.00999762	      0.09999421	      0.00999762	      0.09999421	      0.00999762	      0.09999141
      0.00003692	      0.00010094	      4.75831216	      0.00000000	      0.00000000	     -0.00000000	      0.00000000	      0.00000001	      0.00026780	      0.94000013	      0.00602166	     -0.00000000	     -0.00000000	     -0.00011468	     -5.40736270	      0.00000380	      0.18007232	      0.00000756	      0.35697294	      0.00001407	      0.66002097	      0.00000025	      0.01151954	      0.00003099	      1.45904124	     -0.00000000	     -0.00000000	     -0.00000000	     -0.00000000	     -0.00011468	     -5.40736270	      0.00000380	      0.18007232	      0.00000756	      0.35697294	      0.00001407	      0.66002097	      0.00000025	      0.01151954	      0.00003099	      1.45904124	      0.00000000	      0.00000000	     -0.00000000	     -0.00000000	     -0.00011761	     -5.54427432	     -0.00000000	     -0.00000000	      0.00000000	     -0.00000000	      0.00002505	      1.18041592	      0.00000084	      0.03937848	      0.00000008	      0.00399545	     -0.00001194	     -0.56289637	      0.00000261	      0.12322677	      0.00000000	      0.00000000	      0.00000000	      0.00000000	      0.00002505	      1.18041592	      0.00000084	      0.03937848	      0.00000008	      0.00399545	     -0.00001194	     -0.56289637	      0.00000261	      0.12322677	      0.00000000	      0.00000000	     -0.00000000	     -0.00000000	      0.00999525	      0.00999525	      0.10656754	      0.00999525	      0.00999525	      0.11245326	      0.00999525	      0.00999525	      0.00999525	      0.09998588	      0.00999525	      0.00999525	      0.09916042	      0.00999525	      0.09954213	      0.00999525	      0.09601695	      0.00999525	      0.09711156	      0.00999525	      0.09793586	      0.00999525	      0.09688183	      0.00999525	      0.00999525	      0.00999525	      0.00999525	      0.00999525	      0.00999525	      0.00999525	      0.00999525	      0.00999525	      0.09512505	      0.00999525	      0.00999525	      0.00999525	      0.09612506	      0.00999525	      0.09685480	      0.00999525	      0.09350340	      0.00999525	      0.00999525	      0.09960011	      0.00999525	      0.00999525	      0.09913467	      0.00999525	      0.16432725	      0.00999525	      0.09593587	      0.00999525	      0.09997364	      0.00999525	      0.09907227	      0.00999525	      0.09509802	      0.00999525	      0.09998842	      0.00999525	      0.09998843	      0.00999525	      0.09998283	      0.00999525	      0.00999525	      0.10656754	      0.00999525	      0.00999525	      0.11245326	      0.00999525	      0.00999525	      0.00999525	      0.09998588	      0.00999525	      0.00999525	      0.09916042	      0.00999525	      0.09954213	      0.00999525	      0.09601695	      0.00999525	      0.09711156	      0.00999525	      0.09793586	      0.00999525	      0.09688183	      0.00999525	      0.00999525	      0.00999525	      0.00999525	      0.00999525	      0.00999525	      0.00999525	      0.00999525	      0.00999525	      0.09512505	      0.00999525	      0.00999525	      0.00999525	      0.09612506	      0.00999525	      0.09685480	      0.00999525	      0.09350340	      0.00999525	      0.00999525	      0.09960011	      0.00999525	      0.00999525	      0.09913467	      0.00999525	      0.16432725	      0.00999525	      0.09593587	      0.00999525	      0.09997364	      0.00999525	      0.09907227	      0.00999525	      0.09509802	      0.00999525	      0.09998842	      0.00999525	      0.09998843	      0.00999525	      0.09998283
      0.00006978	      0.00029145	      6.60311732	      0.00000000	     -0.00000000	     -0.00000000	     -0.00000000	      0.00000002	      0.00037521	      0.94000037	      0.00817445	     -0.00000000	      0.00000000	     -0.00033124	     -7.50705606	      0.00001103	      0.25147565	      0.00002175	      0.48763734	      0.00004033	      0.90723778	      0.00000070	      0.01583429	      0.00008927	      2.01763545	     -0.00000000	     -0.00000000	     -0.00000000	     -0.00000000	     -0.00033124	     -7.50705606	      0.00001103	      0.25147565	      0.00002175	      0.48763734	      0.00004033	      0.90723778	      0.00000070	      0.01583429	      0.00008927	      2.01763545	      0.00000000	      0.00000000	     -0.00000000	     -0.00000000	     -0.00033958	     -7.69336907	     -0.00000000	      0.00000000	      0.00000000	      0.00000000	      0.00007229	      1.63742738	      0.00000241	      0.05462537	      0.00000024	      0.00555329	     -0.00003447	     -0.78087393	      0.00000755	      0.17095312	      0.00000000	      0.00000000	      0.00000000	     -0.00000000	      0.00007229	      1.63742738	      0.00000241	      0.05462537	      0.00000024	      0.00555329	     -0.00003447	     -0.78087393	      0.00000755	      0.17095312	      0.00000000	     -0.00000000	     -0.00000000	     -0.00000000	      0.00999102	      0.00999102	      0.10912901	      0.00999102	      0.00999102	      0.11764122	      0.00999102	      0.00999102	      0.00999102	      0.09997335	      0.00999102	      0.00999102	      0.09845981	      0.00999102	      0.09915209	      0.00999102	      0.09280816	      0.00999102	      0.09478460	      0.00999102	      0.09627246	      0.00999102	      0.09436979	      0.00999102	      0.00999102	      0.00999102	      0.00999102	      0.00999102	      0.00999102	      0.00999102	      0.00999102	      0.00999102	      0.09119772	      0.00999102	      0.00999102	      0.00999102	      0.09300336	      0.00999102	      0.09432099	      0.00999102	      0.08826965	      0.00999102	      0.00999102	      0.09925813	      0.00999102	      0.00999102	      0.09841352	      0.00999102	      0.18803963	      0.00999102	      0.09266176	      0.00999102	      0.09995031	      0.00999102	      0.09830155	      0.00999102	      0.09114892	      0.00999102	      0.09997811	      0.00999102	      0.09997813	      0.00999102	      0.09996762	      0.00999102	      0.00999102	      0.10912901	      0.00999102	      0.00999102	      0.11764122	      0.00999102	      0.00999102	      0.00999102	      0.09997335	      0.00999102	      0.00999102	      0.09845981	      0.00999102	      0.09915209	      0.00999102	      0.09280816	      0.00999102	      0.09478460	      0.00999102	      0.09627246	      0.00999102	      0.09436979	      0.00999102	      0.00999102	      0.00999102	      0.00999102	      0.00999102	      0.00999102	      0.00999102	      0.00999102	      0.00999102	      0.09119772	      0.00999102	      0.00999102	      0.00999102	      0.09300336	      0.00999102	      0.09432099	      0.00999102	      0.08826965	      0.00999102	      0.00999102	      0.09925813	      0.00999102	      0.00999102	      0.09841352	      0.00999102	      0.18803963	      0.00999102	      0.09266176	      0.00999102	      0.09995031	      0.00999102	      0.09830155	      0.00999102	      0.09114892	      0.00999102	      0.09997811	      0.00999102	      0.09997813	      0.00999102	      0.09996762
